<svg width="30" height="28" viewBox="0 0 30 28" fill="none" xmlns="http://www.w3.org/2000/svg">
<path d="M17.0832 26.7107V21.7051C17.0832 21.0259 17.6337 20.4758 18.3125 20.4758C20.7346 20.4758 22.0522 17.9918 22.2351 13.0883H18.3125C17.6338 13.0883 17.0832 12.5374 17.0832 11.859V1.2894C17.0832 0.610464 17.6337 0.0603575 18.3125 0.0603575L28.7706 0.0603575C29.4492 0.0603575 30 0.611065 30 1.2894V11.8591C30 14.2095 29.7627 16.3663 29.2969 18.2712C28.8184 20.2239 28.0839 21.9311 27.1142 23.3459C26.1169 24.7998 24.8684 25.9406 23.4054 26.7351C21.9314 27.5347 20.2179 27.9405 18.312 27.9405C17.6338 27.94 17.0832 27.3894 17.0832 26.7107ZM1.22904 20.4754C0.550364 20.4754 0 21.0259 0 21.7042L0 26.7108C0 27.3894 0.550364 27.9396 1.22904 27.9396C3.134 27.9396 4.84834 27.5337 6.32145 26.7342C7.78519 25.9398 9.03357 24.7998 10.0307 23.345C11.001 21.9302 11.7355 20.2229 12.214 18.2692C12.68 16.3643 12.9168 14.2074 12.9168 11.858V1.28836C12.9168 0.609433 12.3659 0.0593262 11.6875 0.0593262L1.22904 0.0593262C0.550364 0.0593262 0 0.609948 0 1.28836L0 11.858C0 12.5369 0.550364 13.0873 1.22904 13.0873H5.09654C4.91589 17.9913 3.61724 20.4754 1.22904 20.4754Z" fill="#EA8A7F"/>
</svg>
