<svg width="50" height="50" viewBox="0 0 50 50" fill="none" xmlns="http://www.w3.org/2000/svg">
<g clip-path="url(#clip0_1_60)">
<path d="M30.6209 20.3189L30.6206 20.3192L23.1439 27.381L19.5729 23.7072C19.1539 23.2758 18.4641 23.266 18.0332 23.685L18.068 23.7208L18.0332 23.685C17.6019 24.1043 17.5921 24.7937 18.011 25.225L18.011 25.2251L22.3353 29.6641L22.3357 29.6645C22.7564 30.0877 23.4363 30.1023 23.8744 29.6969L23.8748 29.6966L32.1379 21.9028C32.3482 21.7044 32.4711 21.4305 32.4792 21.1417C32.4873 20.8528 32.3802 20.5725 32.1814 20.3626L32.1811 20.3624C31.76 19.9247 31.0658 19.9055 30.6209 20.3189Z" fill="white" stroke="white" stroke-width="0.1"/>
<path d="M25.0803 9.3853C16.4668 9.3853 9.46308 16.389 9.46308 25.0025C9.46308 33.6164 16.4668 40.6201 25.0803 40.6201C33.6942 40.6201 40.6979 33.6164 40.6979 25.0025C40.6979 16.389 33.6942 9.3853 25.0803 9.3853ZM25.0803 38.4361C17.6683 38.4361 11.6471 32.4044 11.6471 25.0025C11.6471 17.6006 17.6683 11.5693 25.0803 11.5693C32.4997 11.5693 38.5139 17.5835 38.5139 25.0025C38.5139 32.4215 32.4997 38.4361 25.0803 38.4361Z" fill="white" stroke="white" stroke-width="0.1"/>
<path d="M38.0354 3.79581L38.0355 3.79609L40.8102 9.28325L46.2971 12.0578C46.2971 12.0578 46.2971 12.0578 46.2972 12.0578C46.6866 12.2523 46.923 12.6606 46.8978 13.0953L46.5548 19.2578L49.9321 24.4018L38.0354 3.79581ZM38.0354 3.79581C37.8372 3.41005 37.4318 3.17515 36.9987 3.19562L36.9983 3.19563M38.0354 3.79581L36.9983 3.19563M36.9983 3.19563L30.8251 3.52851L25.681 0.129967L25.681 0.12994M36.9983 3.19563L25.681 0.12994M25.681 0.12994C25.3167 -0.11023 24.8445 -0.110213 24.4798 0.129925L24.4797 0.129967M25.681 0.12994L24.4797 0.129967M24.4797 0.129967L19.3357 3.52848L13.1737 3.18547C13.1736 3.18547 13.1736 3.18547 13.1736 3.18547C12.7385 3.15991 12.3307 3.3962 12.1362 3.78599C12.1362 3.78605 12.1361 3.7861 12.1361 3.78616L9.36119 9.27307L3.87444 12.0477L3.87422 12.0478M24.4797 0.129967L3.87422 12.0478M3.87422 12.0478C3.48795 12.2456 3.25351 12.6511 3.27397 13.0846L3.27399 13.085M3.87422 12.0478L3.27399 13.085M3.27399 13.085L3.6166 19.2476L0.218489 24.3916L0.218464 24.3917M3.27399 13.085L0.218464 24.3917M0.218464 24.3917C-0.0217066 24.756 -0.0216888 25.2282 0.218449 25.5929M0.218464 24.3917L0.218449 25.5929M0.218449 25.5929L3.60643 30.7471L3.26341 36.9096L3.26341 36.9097L3.31333 36.9125M0.218449 25.5929L3.88635 37.9025L3.8641 37.9471L9.35101 40.7216M3.31333 36.9125C3.28931 37.3273 3.5144 37.7168 3.88642 37.9024L9.38823 40.6844M3.31333 36.9125L3.65727 30.7334L3.31333 36.9125ZM9.38823 40.6844L9.34361 40.707L9.35101 40.7216M9.38823 40.6844L9.36566 40.729L9.35101 40.7216M9.38823 40.6844L19.3255 46.4662M9.35101 40.7216L12.1256 46.2088L12.1258 46.209C12.3236 46.5953 12.729 46.8297 13.1625 46.8093L13.1629 46.8092L19.3255 46.4662M19.3255 46.4662L24.4689 49.8639L24.4971 49.8226M19.3255 46.4662L36.9775 46.8092L36.9774 46.8092L30.8149 46.4662M19.3255 46.4662L19.3117 46.4571L19.3393 46.4154M19.3255 46.4662L19.342 46.4653L19.3393 46.4154M24.4971 49.8226L24.4696 49.8643L24.4693 49.8642C24.8317 50.1119 25.3087 50.1119 25.6712 49.8642L25.6709 49.8643L25.6433 49.8226M24.4971 49.8226C24.8427 50.0591 25.2977 50.0591 25.6433 49.8226M24.4971 49.8226L19.3393 46.4154M25.6433 49.8226L25.6716 49.8639L30.8149 46.4662M25.6433 49.8226L30.8012 46.4154M30.8149 46.4662L30.7984 46.4653L30.8012 46.4154M30.8149 46.4662L30.8287 46.4571L30.8012 46.4154M30.8012 46.4154L13.1602 46.7593L19.3393 46.4154M30.5946 44.2713L30.5955 44.2713L36.4082 44.5923L39.0196 39.4222L30.5946 44.2713ZM30.5946 44.2713C30.3609 44.2628 30.1302 44.3231 29.9309 44.445L29.9294 44.446M30.5946 44.2713L29.9294 44.446M29.9294 44.446L25.0804 47.6478L20.2322 44.4463C20.2321 44.4462 20.2321 44.4462 20.232 44.4461C20.0546 44.3263 19.8455 44.2615 19.6313 44.2606H19.6311M29.9294 44.446L19.6311 44.2606M19.6311 44.2606H19.579V44.2606M19.6311 44.2606L19.579 44.2606M19.579 44.2606L19.5762 44.2607M19.579 44.2606L19.5762 44.2607M19.5762 44.2607L13.7631 44.5821L11.1522 39.4116L19.5762 44.2607ZM5.81198 30.5166L5.81194 30.5176L5.49056 36.3302L10.6712 38.931C10.8794 39.0351 11.048 39.2037 11.1521 39.4115L5.81198 30.5166ZM5.81198 30.5166C5.82048 30.2829 5.75971 30.0522 5.63778 29.8529L5.6378 29.8529M5.81198 30.5166L5.6378 29.8529M5.6378 29.8529L5.63686 29.8515M5.6378 29.8529L5.63686 29.8515M5.63686 29.8515L2.43545 25.0024M5.63686 29.8515L2.43545 25.0024M19.5667 5.73404L19.5657 5.734L13.7526 5.41262L11.1416 10.5831L19.5667 5.73404ZM19.5667 5.73404C19.7999 5.74211 20.0306 5.68179 20.2303 5.55986L20.2303 5.55989M19.5667 5.73404L20.2303 5.55989M20.2303 5.55989L20.2317 5.55891M20.2303 5.55989L20.2317 5.55891M20.2317 5.55891L25.0804 2.35751L29.9288 5.55847C29.9289 5.55855 29.929 5.55863 29.9292 5.55872C30.1248 5.6923 30.3605 5.75427 30.5963 5.73395C30.5966 5.73393 30.5968 5.7339 30.5971 5.73388L36.4082 5.41262L39.0196 10.5831C39.1237 10.7909 39.2923 10.9595 39.5002 11.0637L44.6702 13.6746L44.3492 19.4877L44.3492 19.4886M20.2317 5.55891L44.3492 19.4886M44.3492 19.4886C44.3407 19.722 44.4015 19.9527 44.523 20.1519L44.5229 20.1519M44.3492 19.4886L44.5229 20.1519M44.5229 20.1519L44.5239 20.1534M44.5229 20.1519L44.5239 20.1534M44.5239 20.1534L47.7257 25.0024L44.5243 29.8509C44.5242 29.851 44.5241 29.8512 44.524 29.8513M44.5239 20.1534L44.524 29.8513M44.524 29.8513C44.3909 30.0469 44.329 30.2822 44.3493 30.5184C44.3493 30.5186 44.3493 30.5189 44.3494 30.5191L44.6702 36.3303L39.5002 38.9412L44.524 29.8513ZM2.43545 25.0024L5.63638 20.1541C5.63646 20.154 5.63654 20.1539 5.63662 20.1537C5.77024 19.9585 5.83221 19.7227 5.81189 19.4869C5.81187 19.4867 5.81185 19.4864 5.81182 19.4861L5.49056 13.6746L10.661 11.0637L2.43545 25.0024ZM38.0149 46.2086L40.7894 40.7216L46.2766 37.947L46.2769 37.9469C46.6626 37.7487 46.8975 37.3437 46.8771 36.9101L46.877 36.9097L46.534 30.7472L49.9321 25.6031L49.9321 25.6031C50.1723 25.2388 50.1723 24.7662 49.9322 24.4019L38.0149 46.2086ZM39.5 38.9413C39.2922 39.0454 39.1237 39.2144 39.0196 39.4221L39.5 38.9413ZM10.6612 11.0636C10.8689 10.9595 11.0374 10.791 11.1416 10.5832L10.6612 11.0636Z" fill="white" stroke="white" stroke-width="0.1"/>
</g>
<defs>
<clipPath id="clip0_1_60">
<rect width="50" height="50" fill="white"/>
</clipPath>
</defs>
</svg>
